nRows=32
nColumns=19
inDegrees=yes
endheader
time	ground_force_vx	ground_force_vy	ground_force_vz	ground_force_px	ground_force_py	ground_force_pz	1_ground_force_vx	1_ground_force_vy	1_ground_force_vz	1_ground_force_px	1_ground_force_py	1_ground_force_pz	ground_torque_x	ground_torque_y	ground_torque_z	1_ground_torque_x	1_ground_torque_y	1_ground_torque_z
8.291	-0.054101	0.072135	0.018034	0.300000012	0	0.609999999	-0.018034	-0.054101	0.036067	0.300000012	0	0.2050000005	-0.013808	0.018755	0.013808	-0	0.018034	0
8.292	-0.090169	0.054101	0	0.300000012	0	0.609999999	-0.036067	-0.108202	0.036067	0.300000012	0	0.2050000005	-0.026282	0.022362	0.026282	-0	0.020198	0
8.293	-0.090169	0.14427	-0.018034	0.300000012	0	0.609999999	-0.018034	-0.126236	0.036067	0.300000012	0	0.2050000005	-0.003049	0.018755	0.003049	-0	0.015148	0
8.294	-0.072135	0.072135	-0.072135	0.300000012	0	0.609999999	-0.036067	-0.090169	0.018034	0.300000012	0	0.2050000005	-0.023908	0.017312	0.023908	-0	0.020919	0
8.295	-0.126236	0.072135	-0.054101	0.300000012	0	0.609999999	-0.054101	-0.126236	0.018034	0.300000012	0	0.2050000005	-0.01219	0.023083	0.01219	-0	0.018755	0
8.296	-0.090169	0.018034	-0.018034	0.300000012	0	0.609999999	-0	-0.054101	0.018034	0.300000012	0	0.2050000005	3133.084229	0.023083	-3133.084229	-0	0.013706	0
8.297	-0.054101	-0.036067	-0.018034	0.300000012	0	0.609999999	-0.054101	-0.018034	0.036067	0.300000012	0	0.2050000005	-0	0.01587	0	-0	0.015148	0
8.298	-0.072135	-0.036067	-0.054101	0.300000012	0	0.609999999	-0.054101	-0.054101	0.036067	0.300000012	0	0.2050000005	-0	0.020919	0	-0	0.015148	0
8.299	-0.090169	0.054101	-0.054101	0.300000012	0	0.609999999	-0.036067	-0.036067	0	0.300000012	0	0.2050000005	-0.043872	0.023083	0.043872	-0	0.012984	0
8.3	-0.090169	0.108202	-0.018034	0.300000012	0	0.609999999	-0.036067	-0.072135	0.036067	0.300000012	0	0.2050000005	-0.010571	0.01587	0.010571	-0	0.012984	0
8.301	-0.090169	0.090168	-0.018034	0.300000012	0	0.609999999	-0.018034	0	0.036067	0.300000012	0	0.2050000005	-0.009272	0.023083	0.009272	0	0.01082	-0
8.302	-0.090169	0.036067	-0.018034	0.300000012	0	0.609999999	-0.036067	-0.036067	0.036067	0.300000012	0	0.2050000005	9.770855	0.023083	-9.770855	-0	0.008656	0
8.303	-0.090169	0	-0.036067	0.300000012	0	0.609999999	-0.036067	-0.018034	0.054101	0.300000012	0	0.2050000005	0	0.019476	-0	-0	0.020919	0
8.304	-0.072135	0.054101	-0.036067	0.300000012	0	0.609999999	-0.018034	-0.036067	0.018034	0.300000012	0	0.2050000005	5.996256	0.02164	-5.996256	-0	0.018755	0
8.305	-0.054101	0.072135	-0.036067	0.300000012	0	0.609999999	0.018034	-0.090169	0	0.300000012	0	0.2050000005	-0.043505	0.023804	0.043505	-0	0.015148	0
8.306	-0.054101	0.072135	-0.018034	0.300000012	0	0.609999999	0.036067	0.018034	0.018034	0.300000012	0	0.2050000005	-0.008249	0.020198	0.008249	5.362205	0.013706	-5.362205
8.307	-0.072135	0.090169	0	0.300000012	0	0.609999999	-0.018034	-0.018034	0.054101	0.300000012	0	0.2050000005	-0.010967	0.018755	0.010967	-0	0.01587	0
8.308	-0.054101	0.072135	-0.036067	0.300000012	0	0.609999999	-0	-0.054101	0.018034	0.300000012	0	0.2050000005	0.053286	0.028133	-0.053286	-0	0.018034	0
8.309	-0.054101	0.072135	-0.036067	0.300000012	0	0.609999999	-0.018034	-0.018034	0.018034	0.300000012	0	0.2050000005	0.368907	0.028133	-0.368907	-0	0.01587	0
8.31	-0.036067	0.072135	-0.036067	0.300000012	0	0.609999999	-0.054101	0.036067	0.036067	0.300000012	0	0.2050000005	0.075855	0.025969	-0.075855	-70.311897	0.019476	70.311897
8.311	-0.054101	0.036067	-0.036067	0.300000012	0	0.609999999	-0.018034	0.054101	0.036067	0.300000012	0	0.2050000005	242.6633	0.025247	-242.6633	0.031817	0.016591	-0.031817
8.312	-0.090169	0.018034	-0.018034	0.300000012	0	0.609999999	-0.036067	0	0.036067	0.300000012	0	0.2050000005	207328.265625	0.028854	-207328.265625	0	0.014427	-0
8.313	-0.054101	0.072135	-0.018034	0.300000012	0	0.609999999	-0.018034	0.018034	0.036067	0.300000012	0	0.2050000005	1.462295	0.031739	-1.462295	-142.823227	0.023804	142.823227
8.314	-0.072135	0.036067	-0.018034	0.300000012	0	0.609999999	-0.036067	0.018034	0.036067	0.300000012	0	0.2050000005	80.401543	0.031018	-80.401543	0.028871	0.02164	-0.028871
8.315	-0.090168	0	-0.018034	0.300000012	0	0.609999999	-0.018034	-0.036067	0	0.300000012	0	0.2050000005	0	0.024526	-0	-0	0.019476	0
8.316	-0.072135	0.054101	0	0.300000012	0	0.609999999	-0.018034	-0.108202	0	0.300000012	0	0.2050000005	2.583135	0.018755	-2.583135	-0	0.016591	0
8.317	-0.090168	0.072135	0.018034	0.300000012	0	0.609999999	-0.036067	-0.090169	0.018034	0.300000012	0	0.2050000005	-0.010496	0.017312	0.010496	-0	0.018034	0
8.318	-0.090169	0.054101	0.018034	0.300000012	0	0.609999999	-0.018034	-0.036067	0	0.300000012	0	0.2050000005	9.42736	0.028854	-9.42736	-0	0.019476	0
8.319	-0.054101	0.036067	0	0.300000012	0	0.609999999	-0.036067	-0.018034	0.036067	0.300000012	0	0.2050000005	803.141602	0.025247	-803.141602	-0	0.007213	0
8.32	-0.072135	0.036067	0	0.300000012	0	0.609999999	-0	-0.072135	0.018034	0.300000012	0	0.2050000005	170.51976	0.01587	-170.51976	-0	0.01082	0
8.321	-0.090169	0.072135	0	0.300000012	0	0.609999999	-0	-0.126236	0.018034	0.300000012	0	0.2050000005	0.505656	0.025247	-0.505656	-0	0.018034	0
8.322	-0.090169	0.108202	0.018034	0.300000012	0	0.609999999	-0	-0.054101	0.018034	0.300000012	0	0.2050000005	-0.062923	0.02164	0.062923	-0	0.025247	0
